# MagicaVoxel @ Ephtracy

# group
o 

# material
mtllib robo_kari3.mtl
usemtl palette

# normals
vn -1 0 0
vn 1 0 0
vn 0 0 1
vn 0 0 -1
vn 0 -1 0
vn 0 1 0

# texcoords
vt 0.0214844 0.5
vt 0.0332031 0.5
vt 0.0917969 0.5
vt 0.841797 0.5
vt 0.962891 0.5
vt 0.970703 0.5
vt 0.974609 0.5
vt 0.978516 0.5
vt 0.982422 0.5
vt 0.994141 0.5

# verts
v 0.5 2.7 -1
v 0.5 2.7 -1.1
v 0.5 2.8 -1
v 0.5 2.8 -1.1
v 0.5 3 -1
v 0.5 3 -1.1
v 0.5 3.2 -0.9
v 0.5 3.2 -1
v 0.5 3.2 -1.1
v 0.5 3.3 -0.9
v 0.5 3.3 -1
v 0.6 3 -0.9
v 0.6 3 -1
v 0.6 3.2 -0.8
v 0.6 3.2 -0.9
v 0.6 3.2 -1
v 0.6 3.2 -1.1
v 0.6 3.3 -0.9
v 0.6 3.3 -1
v 0.6 3.3 -1.1
v 0.6 3.4 -0.9
v 0.6 3.4 -1
v 0.6 3.6 -0.8
v 0.6 3.6 -0.9
v 0.7 2.9 -0.8
v 0.7 2.9 -0.9
v 0.7 2.9 -1.3
v 0.7 3 -0.8
v 0.7 3 -0.9
v 0.7 3 -1.1
v 0.7 3.2 -0.8
v 0.7 3.2 -0.9
v 0.7 3.3 -1
v 0.7 3.3 -1.1
v 0.7 3.4 -0.9
v 0.7 3.4 -1
v 0.7 3.5 -0.9
v 0.7 3.5 -1.3
v 0.8 2.4 -1
v 0.8 2.4 -1.1
v 0.8 2.6 -1
v 0.8 2.6 -1.1
v 0.9 2 -0.9
v 0.9 2 -1
v 0.9 2 -1.1
v 0.9 2.1 -0.9
v 0.9 2.1 -1
v 0.9 2.1 -1.1
v 0.9 2.3 -1
v 0.9 2.3 -1.1
v 0.9 2.4 -0.9
v 0.9 2.4 -1
v 0.9 2.4 -1.1
v 0.9 2.4 -1.2
v 0.9 2.6 -1
v 0.9 2.6 -1.1
v 0.9 2.7 -1
v 0.9 2.7 -1.1
v 0.9 2.8 -0.9
v 0.9 2.8 -1
v 0.9 2.8 -1.1
v 0.9 2.8 -1.2
v 1 2.8 -1
v 1 2.8 -1.1
v 1 2.9 -1
v 1 2.9 -1.1
v 1 3.5 -1
v 1 3.5 -1.1
v 1 3.7 -1
v 1 3.7 -1.1
v 1 3.8 -1
v 1 3.8 -1.1
v 1.1 2 -0.9
v 1.1 2 -1
v 1.1 2 -1.1
v 1.1 2.1 -0.9
v 1.1 2.1 -1
v 1.1 2.1 -1.1
v 1.1 2.3 -1
v 1.1 2.3 -1.1
v 1.1 2.4 -1
v 1.1 2.4 -1.1
v 1.1 2.7 -0.9
v 1.1 2.7 -1
v 1.1 2.7 -1.1
v 1.1 2.7 -1.2
v 1.1 2.8 -0.9
v 1.1 2.8 -1
v 1.1 2.8 -1.1
v 1.1 2.8 -1.2
v 0.7 3.5 -0.8
v 0.7 3.5 -0.9
v 0.7 3.6 -0.8
v 0.7 3.6 -0.9
v 1 2 -0.9
v 1 2 -1
v 1 2 -1.1
v 1 2.1 -0.9
v 1 2.1 -1
v 1 2.1 -1.1
v 1 2.3 -1
v 1 2.3 -1.1
v 1 2.4 -1
v 1 2.4 -1.1
v 1 2.7 -0.9
v 1 2.7 -1
v 1 2.7 -1.1
v 1 2.7 -1.2
v 1 2.8 -0.9
v 1 2.8 -1
v 1 2.8 -1.1
v 1 2.8 -1.2
v 1.1 2.8 -1
v 1.1 2.8 -1.1
v 1.1 2.9 -1
v 1.1 2.9 -1.1
v 1.1 3.5 -1
v 1.1 3.5 -1.1
v 1.1 3.7 -1
v 1.1 3.7 -1.1
v 1.1 3.8 -1
v 1.1 3.8 -1.1
v 1.2 2 -0.9
v 1.2 2 -1
v 1.2 2 -1.1
v 1.2 2.1 -0.9
v 1.2 2.1 -1
v 1.2 2.1 -1.1
v 1.2 2.3 -1
v 1.2 2.3 -1.1
v 1.2 2.4 -0.9
v 1.2 2.4 -1
v 1.2 2.4 -1.1
v 1.2 2.4 -1.2
v 1.2 2.6 -1
v 1.2 2.6 -1.1
v 1.2 2.7 -1
v 1.2 2.7 -1.1
v 1.2 2.8 -0.9
v 1.2 2.8 -1
v 1.2 2.8 -1.1
v 1.2 2.8 -1.2
v 1.3 2.4 -1
v 1.3 2.4 -1.1
v 1.3 2.6 -1
v 1.3 2.6 -1.1
v 1.4 2.9 -0.8
v 1.4 2.9 -0.9
v 1.4 2.9 -1.3
v 1.4 3 -0.8
v 1.4 3 -0.9
v 1.4 3 -1.1
v 1.4 3.3 -0.9
v 1.4 3.3 -1.1
v 1.4 3.5 -0.8
v 1.4 3.5 -1.3
v 1.5 3 -0.9
v 1.5 3 -1.1
v 1.5 3.3 -0.9
v 1.5 3.3 -1.1
v 1.6 2.7 -1
v 1.6 2.7 -1.1
v 1.6 2.8 -1
v 1.6 2.8 -1.1
v 0.6 3.2 -0.8
v 0.6 3.6 -0.8
v 0.7 2.9 -0.8
v 0.7 3 -0.8
v 0.7 3.2 -0.8
v 0.7 3.5 -0.8
v 0.7 3.6 -0.8
v 0.8 2.9 -0.8
v 0.8 3 -0.8
v 0.8 3.2 -0.8
v 0.9 3 -0.8
v 0.9 3.2 -0.8
v 1.2 3 -0.8
v 1.2 3.2 -0.8
v 1.3 2.9 -0.8
v 1.3 3 -0.8
v 1.3 3.2 -0.8
v 1.4 2.9 -0.8
v 1.4 3 -0.8
v 1.4 3.5 -0.8
v 0.5 3.2 -0.9
v 0.5 3.3 -0.9
v 0.6 3 -0.9
v 0.6 3.2 -0.9
v 0.6 3.3 -0.9
v 0.7 3 -0.9
v 0.7 3.2 -0.9
v 0.9 2 -0.9
v 0.9 2.1 -0.9
v 0.9 2.4 -0.9
v 0.9 2.8 -0.9
v 1 2 -0.9
v 1 2.1 -0.9
v 1 2.5 -0.9
v 1 2.6 -0.9
v 1 2.7 -0.9
v 1 2.8 -0.9
v 1.1 2 -0.9
v 1.1 2.1 -0.9
v 1.1 2.5 -0.9
v 1.1 2.6 -0.9
v 1.1 2.7 -0.9
v 1.1 2.8 -0.9
v 1.2 2 -0.9
v 1.2 2.1 -0.9
v 1.2 2.4 -0.9
v 1.2 2.8 -0.9
v 1.4 3 -0.9
v 1.4 3.3 -0.9
v 1.5 3 -0.9
v 1.5 3.3 -0.9
v 0.5 2.7 -1
v 0.5 2.8 -1
v 0.5 3 -1
v 0.5 3.2 -1
v 0.6 2.7 -1
v 0.6 2.8 -1
v 0.6 3 -1
v 0.6 3.2 -1
v 0.7 2.7 -1
v 0.7 2.8 -1
v 0.8 2.4 -1
v 0.8 2.6 -1
v 0.8 2.7 -1
v 0.8 2.8 -1
v 0.9 2.1 -1
v 0.9 2.3 -1
v 0.9 2.4 -1
v 0.9 2.6 -1
v 0.9 2.7 -1
v 0.9 2.8 -1
v 1 2.1 -1
v 1 2.3 -1
v 1 2.4 -1
v 1 2.7 -1
v 1 2.8 -1
v 1 2.9 -1
v 1 3.5 -1
v 1 3.7 -1
v 1 3.8 -1
v 1.1 2.1 -1
v 1.1 2.3 -1
v 1.1 2.4 -1
v 1.1 2.7 -1
v 1.1 2.8 -1
v 1.1 2.9 -1
v 1.1 3.5 -1
v 1.1 3.7 -1
v 1.1 3.8 -1
v 1.2 2.1 -1
v 1.2 2.3 -1
v 1.2 2.4 -1
v 1.2 2.6 -1
v 1.2 2.7 -1
v 1.2 2.8 -1
v 1.3 2.4 -1
v 1.3 2.6 -1
v 1.3 2.7 -1
v 1.3 2.8 -1
v 1.4 2.7 -1
v 1.4 2.8 -1
v 1.5 2.7 -1
v 1.5 2.8 -1
v 1.6 2.7 -1
v 1.6 2.8 -1
v 0.6 3.4 -0.9
v 0.6 3.6 -0.9
v 0.7 3.4 -0.9
v 0.7 3.5 -0.9
v 0.7 3.6 -0.9
v 0.5 3.2 -1
v 0.5 3.3 -1
v 0.6 3.2 -1
v 0.6 3.3 -1
v 0.6 3.4 -1
v 0.7 3.3 -1
v 0.7 3.4 -1
v 0.5 2.7 -1.1
v 0.5 2.8 -1.1
v 0.5 3 -1.1
v 0.5 3.2 -1.1
v 0.6 2.7 -1.1
v 0.6 2.8 -1.1
v 0.6 3 -1.1
v 0.6 3.2 -1.1
v 0.6 3.3 -1.1
v 0.7 2.7 -1.1
v 0.7 2.8 -1.1
v 0.7 3 -1.1
v 0.7 3.3 -1.1
v 0.8 2.4 -1.1
v 0.8 2.6 -1.1
v 0.8 2.7 -1.1
v 0.8 2.8 -1.1
v 0.9 2 -1.1
v 0.9 2.1 -1.1
v 0.9 2.3 -1.1
v 0.9 2.4 -1.1
v 0.9 2.6 -1.1
v 0.9 2.7 -1.1
v 0.9 2.8 -1.1
v 1 2 -1.1
v 1 2.1 -1.1
v 1 2.3 -1.1
v 1 2.4 -1.1
v 1 2.7 -1.1
v 1 2.8 -1.1
v 1 2.9 -1.1
v 1 3.5 -1.1
v 1 3.7 -1.1
v 1 3.8 -1.1
v 1.1 2 -1.1
v 1.1 2.1 -1.1
v 1.1 2.3 -1.1
v 1.1 2.4 -1.1
v 1.1 2.7 -1.1
v 1.1 2.8 -1.1
v 1.1 2.9 -1.1
v 1.1 3.5 -1.1
v 1.1 3.7 -1.1
v 1.1 3.8 -1.1
v 1.2 2 -1.1
v 1.2 2.1 -1.1
v 1.2 2.3 -1.1
v 1.2 2.4 -1.1
v 1.2 2.6 -1.1
v 1.2 2.7 -1.1
v 1.2 2.8 -1.1
v 1.3 2.4 -1.1
v 1.3 2.6 -1.1
v 1.3 2.7 -1.1
v 1.3 2.8 -1.1
v 1.4 2.7 -1.1
v 1.4 2.8 -1.1
v 1.4 3 -1.1
v 1.4 3.3 -1.1
v 1.5 2.7 -1.1
v 1.5 2.8 -1.1
v 1.5 3 -1.1
v 1.5 3.3 -1.1
v 1.6 2.7 -1.1
v 1.6 2.8 -1.1
v 0.9 2.4 -1.2
v 0.9 2.8 -1.2
v 1 2.4 -1.2
v 1 2.7 -1.2
v 1 2.8 -1.2
v 1.1 2.4 -1.2
v 1.1 2.7 -1.2
v 1.1 2.8 -1.2
v 1.2 2.4 -1.2
v 1.2 2.8 -1.2
v 0.7 2.9 -1.3
v 0.7 3.5 -1.3
v 1.4 2.9 -1.3
v 1.4 3.5 -1.3
v 0.9 2 -0.9
v 1 2 -0.9
v 1.1 2 -0.9
v 1.2 2 -0.9
v 0.9 2 -1
v 1 2 -1
v 1.1 2 -1
v 1.2 2 -1
v 0.9 2 -1.1
v 1 2 -1.1
v 1.1 2 -1.1
v 1.2 2 -1.1
v 0.9 2.4 -0.9
v 1.2 2.4 -0.9
v 0.8 2.4 -1
v 0.9 2.4 -1
v 1 2.4 -1
v 1.1 2.4 -1
v 1.2 2.4 -1
v 1.3 2.4 -1
v 0.8 2.4 -1.1
v 0.9 2.4 -1.1
v 1 2.4 -1.1
v 1.1 2.4 -1.1
v 1.2 2.4 -1.1
v 1.3 2.4 -1.1
v 0.9 2.4 -1.2
v 1 2.4 -1.2
v 1.1 2.4 -1.2
v 1.2 2.4 -1.2
v 0.5 2.7 -1
v 0.6 2.7 -1
v 0.7 2.7 -1
v 0.8 2.7 -1
v 0.9 2.7 -1
v 1.2 2.7 -1
v 1.3 2.7 -1
v 1.4 2.7 -1
v 1.5 2.7 -1
v 1.6 2.7 -1
v 0.5 2.7 -1.1
v 0.6 2.7 -1.1
v 0.7 2.7 -1.1
v 0.8 2.7 -1.1
v 0.9 2.7 -1.1
v 1.2 2.7 -1.1
v 1.3 2.7 -1.1
v 1.4 2.7 -1.1
v 1.5 2.7 -1.1
v 1.6 2.7 -1.1
v 0.7 2.9 -0.8
v 0.8 2.9 -0.8
v 1.3 2.9 -0.8
v 1.4 2.9 -0.8
v 0.7 2.9 -0.9
v 0.8 2.9 -0.9
v 1.3 2.9 -0.9
v 1.4 2.9 -0.9
v 1 2.9 -1
v 1.1 2.9 -1
v 1 2.9 -1.1
v 1.1 2.9 -1.1
v 0.7 2.9 -1.3
v 1.4 2.9 -1.3
v 0.6 3 -0.9
v 0.7 3 -0.9
v 1.4 3 -0.9
v 1.5 3 -0.9
v 0.5 3 -1
v 0.6 3 -1
v 0.5 3 -1.1
v 0.6 3 -1.1
v 0.7 3 -1.1
v 1.4 3 -1.1
v 1.5 3 -1.1
v 0.6 3.2 -0.8
v 0.7 3.2 -0.8
v 0.5 3.2 -0.9
v 0.6 3.2 -0.9
v 0.7 3.2 -0.9
v 0.5 3.2 -1
v 0.6 3.2 -1
v 0.9 2.1 -0.9
v 1 2.1 -0.9
v 1.1 2.1 -0.9
v 1.2 2.1 -0.9
v 0.9 2.1 -1
v 1 2.1 -1
v 1.1 2.1 -1
v 1.2 2.1 -1
v 0.8 2.6 -1
v 0.9 2.6 -1
v 1.2 2.6 -1
v 1.3 2.6 -1
v 0.8 2.6 -1.1
v 0.9 2.6 -1.1
v 1.2 2.6 -1.1
v 1.3 2.6 -1.1
v 1 2.7 -0.9
v 1.1 2.7 -0.9
v 1 2.7 -1
v 1.1 2.7 -1
v 1 2.7 -1.1
v 1.1 2.7 -1.1
v 1 2.7 -1.2
v 1.1 2.7 -1.2
v 0.9 2.8 -0.9
v 1 2.8 -0.9
v 1.1 2.8 -0.9
v 1.2 2.8 -0.9
v 0.5 2.8 -1
v 0.6 2.8 -1
v 0.7 2.8 -1
v 0.8 2.8 -1
v 0.9 2.8 -1
v 1 2.8 -1
v 1.1 2.8 -1
v 1.2 2.8 -1
v 1.3 2.8 -1
v 1.4 2.8 -1
v 1.5 2.8 -1
v 1.6 2.8 -1
v 0.5 2.8 -1.1
v 0.6 2.8 -1.1
v 0.7 2.8 -1.1
v 0.8 2.8 -1.1
v 0.9 2.8 -1.1
v 1 2.8 -1.1
v 1.1 2.8 -1.1
v 1.2 2.8 -1.1
v 1.3 2.8 -1.1
v 1.4 2.8 -1.1
v 1.5 2.8 -1.1
v 1.6 2.8 -1.1
v 0.9 2.8 -1.2
v 1 2.8 -1.2
v 1.1 2.8 -1.2
v 1.2 2.8 -1.2
v 0.5 3.2 -1
v 0.6 3.2 -1
v 0.5 3.2 -1.1
v 0.6 3.2 -1.1
v 0.5 3.3 -0.9
v 0.6 3.3 -0.9
v 1.4 3.3 -0.9
v 1.5 3.3 -0.9
v 0.5 3.3 -1
v 0.6 3.3 -1
v 0.7 3.3 -1
v 0.6 3.3 -1.1
v 0.7 3.3 -1.1
v 1.4 3.3 -1.1
v 1.5 3.3 -1.1
v 0.6 3.4 -0.9
v 0.7 3.4 -0.9
v 0.6 3.4 -1
v 0.7 3.4 -1
v 0.7 3.5 -0.8
v 1.4 3.5 -0.8
v 0.7 3.5 -0.9
v 1 3.5 -1
v 1.1 3.5 -1
v 1 3.5 -1.1
v 1.1 3.5 -1.1
v 0.7 3.5 -1.3
v 1.4 3.5 -1.3
v 0.6 3.6 -0.8
v 0.7 3.6 -0.8
v 0.6 3.6 -0.9
v 0.7 3.6 -0.9
v 1 3.8 -1
v 1.1 3.8 -1
v 1 3.8 -1.1
v 1.1 3.8 -1.1

# faces
f 3/10/1 2/10/1 1/10/1
f 4/10/1 2/10/1 3/10/1
f 8/7/1 6/7/1 5/7/1
f 9/7/1 6/7/1 8/7/1
f 10/7/1 8/7/1 7/7/1
f 11/7/1 8/7/1 10/7/1
f 15/3/1 13/3/1 12/3/1
f 16/3/1 13/3/1 15/3/1
f 18/7/1 15/7/1 14/7/1
f 19/3/1 17/3/1 16/3/1
f 20/3/1 17/3/1 19/3/1
f 21/7/1 18/7/1 14/7/1
f 21/7/1 19/7/1 18/7/1
f 22/7/1 19/7/1 21/7/1
f 23/7/1 21/7/1 14/7/1
f 24/7/1 21/7/1 23/7/1
f 28/7/1 26/7/1 25/7/1
f 29/9/1 27/9/1 26/9/1
f 29/7/1 26/7/1 28/7/1
f 30/9/1 27/9/1 29/9/1
f 31/9/1 29/9/1 28/9/1
f 32/9/1 29/9/1 31/9/1
f 34/9/1 27/9/1 30/9/1
f 36/9/1 34/9/1 33/9/1
f 37/9/1 36/9/1 35/9/1
f 38/9/1 27/9/1 34/9/1
f 38/9/1 36/9/1 37/9/1
f 38/9/1 34/9/1 36/9/1
f 41/9/1 40/9/1 39/9/1
f 42/9/1 40/9/1 41/9/1
f 46/9/1 44/9/1 43/9/1
f 47/1/1 45/1/1 44/1/1
f 47/9/1 44/9/1 46/9/1
f 48/1/1 45/1/1 47/1/1
f 49/9/1 48/9/1 47/9/1
f 50/9/1 48/9/1 49/9/1
f 52/6/1 50/6/1 49/6/1
f 53/6/1 50/6/1 52/6/1
f 55/9/1 52/9/1 51/9/1
f 56/9/1 54/9/1 53/9/1
f 57/9/1 55/9/1 51/9/1
f 57/9/1 56/9/1 55/9/1
f 58/9/1 54/9/1 56/9/1
f 58/9/1 56/9/1 57/9/1
f 59/9/1 57/9/1 51/9/1
f 60/9/1 57/9/1 59/9/1
f 61/9/1 54/9/1 58/9/1
f 62/9/1 54/9/1 61/9/1
f 65/6/1 64/6/1 63/6/1
f 66/6/1 64/6/1 65/6/1
f 69/9/1 68/9/1 67/9/1
f 70/9/1 68/9/1 69/9/1
f 71/4/1 70/4/1 69/4/1
f 72/4/1 70/4/1 71/4/1
f 76/9/1 74/9/1 73/9/1
f 77/1/1 75/1/1 74/1/1
f 77/9/1 74/9/1 76/9/1
f 78/1/1 75/1/1 77/1/1
f 79/9/1 78/9/1 77/9/1
f 80/9/1 78/9/1 79/9/1
f 81/6/1 80/6/1 79/6/1
f 82/6/1 80/6/1 81/6/1
f 87/9/1 84/9/1 83/9/1
f 88/9/1 84/9/1 87/9/1
f 89/9/1 86/9/1 85/9/1
f 90/9/1 86/9/1 89/9/1
f 91/7/2 92/7/2 93/7/2
f 93/7/2 92/7/2 94/7/2
f 95/9/2 96/9/2 98/9/2
f 96/1/2 97/1/2 99/1/2
f 98/9/2 96/9/2 99/9/2
f 99/1/2 97/1/2 100/1/2
f 99/9/2 100/9/2 101/9/2
f 101/9/2 100/9/2 102/9/2
f 101/6/2 102/6/2 103/6/2
f 103/6/2 102/6/2 104/6/2
f 105/9/2 106/9/2 109/9/2
f 109/9/2 106/9/2 110/9/2
f 107/9/2 108/9/2 111/9/2
f 111/9/2 108/9/2 112/9/2
f 113/6/2 114/6/2 115/6/2
f 115/6/2 114/6/2 116/6/2
f 117/9/2 118/9/2 119/9/2
f 119/9/2 118/9/2 120/9/2
f 119/4/2 120/4/2 121/4/2
f 121/4/2 120/4/2 122/4/2
f 123/9/2 124/9/2 126/9/2
f 124/1/2 125/1/2 127/1/2
f 126/9/2 124/9/2 127/9/2
f 127/1/2 125/1/2 128/1/2
f 127/9/2 128/9/2 129/9/2
f 129/9/2 128/9/2 130/9/2
f 129/6/2 130/6/2 132/6/2
f 132/6/2 130/6/2 133/6/2
f 131/9/2 132/9/2 135/9/2
f 133/9/2 134/9/2 136/9/2
f 131/9/2 135/9/2 137/9/2
f 135/9/2 136/9/2 137/9/2
f 136/9/2 134/9/2 138/9/2
f 137/9/2 136/9/2 138/9/2
f 131/9/2 137/9/2 139/9/2
f 139/9/2 137/9/2 140/9/2
f 138/9/2 134/9/2 141/9/2
f 141/9/2 134/9/2 142/9/2
f 143/9/2 144/9/2 145/9/2
f 145/9/2 144/9/2 146/9/2
f 147/7/2 148/7/2 150/7/2
f 148/9/2 149/9/2 151/9/2
f 150/7/2 148/7/2 151/7/2
f 151/9/2 149/9/2 152/9/2
f 150/9/2 151/9/2 153/9/2
f 152/9/2 149/9/2 154/9/2
f 150/9/2 153/9/2 155/9/2
f 153/9/2 154/9/2 155/9/2
f 154/9/2 149/9/2 156/9/2
f 155/9/2 154/9/2 156/9/2
f 157/3/2 158/3/2 159/3/2
f 159/3/2 158/3/2 160/3/2
f 161/10/2 162/10/2 163/10/2
f 163/10/2 162/10/2 164/10/2
f 169/7/3 166/7/3 165/7/3
f 170/7/3 166/7/3 169/7/3
f 171/7/3 166/7/3 170/7/3
f 172/7/3 168/7/3 167/7/3
f 173/9/3 169/9/3 168/9/3
f 173/7/3 168/7/3 172/7/3
f 173/9/3 170/9/3 169/9/3
f 174/9/3 170/9/3 173/9/3
f 175/9/3 173/9/3 172/9/3
f 175/1/3 174/1/3 173/1/3
f 176/9/3 170/9/3 174/9/3
f 176/1/3 174/1/3 175/1/3
f 177/9/3 175/9/3 172/9/3
f 177/9/3 176/9/3 175/9/3
f 178/9/3 170/9/3 176/9/3
f 178/9/3 176/9/3 177/9/3
f 179/9/3 177/9/3 172/9/3
f 180/1/3 178/1/3 177/1/3
f 180/9/3 177/9/3 179/9/3
f 181/9/3 170/9/3 178/9/3
f 181/1/3 178/1/3 180/1/3
f 182/7/3 180/7/3 179/7/3
f 183/9/3 181/9/3 180/9/3
f 183/7/3 180/7/3 182/7/3
f 184/9/3 170/9/3 181/9/3
f 184/9/3 181/9/3 183/9/3
f 188/7/3 186/7/3 185/7/3
f 189/7/3 186/7/3 188/7/3
f 190/3/3 188/3/3 187/3/3
f 191/3/3 188/3/3 190/3/3
f 196/9/3 193/9/3 192/9/3
f 197/9/3 193/9/3 196/9/3
f 198/9/3 195/9/3 194/9/3
f 199/9/3 195/9/3 198/9/3
f 200/9/3 195/9/3 199/9/3
f 201/9/3 195/9/3 200/9/3
f 204/9/3 198/9/3 194/9/3
f 204/4/3 199/4/3 198/4/3
f 205/9/3 200/9/3 199/9/3
f 205/4/3 199/4/3 204/4/3
f 206/9/3 200/9/3 205/9/3
f 208/9/3 203/9/3 202/9/3
f 209/9/3 203/9/3 208/9/3
f 210/9/3 207/9/3 206/9/3
f 210/9/3 204/9/3 194/9/3
f 210/9/3 205/9/3 204/9/3
f 210/9/3 206/9/3 205/9/3
f 211/9/3 207/9/3 210/9/3
f 214/3/3 213/3/3 212/3/3
f 215/3/3 213/3/3 214/3/3
f 220/10/3 217/10/3 216/10/3
f 221/10/3 217/10/3 220/10/3
f 222/7/3 219/7/3 218/7/3
f 223/7/3 219/7/3 222/7/3
f 224/9/3 221/9/3 220/9/3
f 225/9/3 221/9/3 224/9/3
f 228/6/3 225/6/3 224/6/3
f 229/6/3 225/6/3 228/6/3
f 232/9/3 227/9/3 226/9/3
f 233/9/3 227/9/3 232/9/3
f 234/9/3 229/9/3 228/9/3
f 235/9/3 229/9/3 234/9/3
f 236/9/3 231/9/3 230/9/3
f 237/6/3 232/6/3 231/6/3
f 237/9/3 231/9/3 236/9/3
f 238/6/3 232/6/3 237/6/3
f 248/9/3 240/9/3 239/9/3
f 249/6/3 241/6/3 240/6/3
f 249/9/3 240/9/3 248/9/3
f 250/6/3 241/6/3 249/6/3
f 251/9/3 243/9/3 242/9/3
f 252/4/3 244/4/3 243/4/3
f 252/9/3 243/9/3 251/9/3
f 253/4/3 244/4/3 252/4/3
f 254/9/3 246/9/3 245/9/3
f 255/6/3 247/6/3 246/6/3
f 255/9/3 246/9/3 254/9/3
f 256/6/3 247/6/3 255/6/3
f 260/9/3 257/9/3 256/9/3
f 261/9/3 257/9/3 260/9/3
f 262/9/3 259/9/3 258/9/3
f 263/9/3 259/9/3 262/9/3
f 264/6/3 263/6/3 262/6/3
f 265/6/3 263/6/3 264/6/3
f 266/9/3 265/9/3 264/9/3
f 267/9/3 265/9/3 266/9/3
f 268/10/3 267/10/3 266/10/3
f 269/10/3 267/10/3 268/10/3
f 270/7/4 271/7/4 272/7/4
f 272/7/4 271/7/4 273/7/4
f 273/7/4 271/7/4 274/7/4
f 275/7/4 276/7/4 277/7/4
f 277/7/4 276/7/4 278/7/4
f 278/7/4 279/7/4 280/7/4
f 280/7/4 279/7/4 281/7/4
f 282/10/4 283/10/4 286/10/4
f 286/10/4 283/10/4 287/10/4
f 284/7/4 285/7/4 288/7/4
f 288/7/4 285/7/4 289/7/4
f 286/9/4 287/9/4 291/9/4
f 291/9/4 287/9/4 292/9/4
f 289/3/4 290/3/4 293/3/4
f 288/3/4 289/3/4 293/3/4
f 293/3/4 290/3/4 294/3/4
f 291/6/4 292/6/4 297/6/4
f 297/6/4 292/6/4 298/6/4
f 295/9/4 296/9/4 302/9/4
f 302/9/4 296/9/4 303/9/4
f 297/9/4 298/9/4 304/9/4
f 304/9/4 298/9/4 305/9/4
f 299/1/4 300/1/4 306/1/4
f 300/9/4 301/9/4 307/9/4
f 306/1/4 300/1/4 307/1/4
f 301/6/4 302/6/4 308/6/4
f 307/9/4 301/9/4 308/9/4
f 308/6/4 302/6/4 309/6/4
f 310/9/4 311/9/4 320/9/4
f 311/6/4 312/6/4 321/6/4
f 320/9/4 311/9/4 321/9/4
f 321/6/4 312/6/4 322/6/4
f 313/9/4 314/9/4 323/9/4
f 314/4/4 315/4/4 324/4/4
f 323/9/4 314/9/4 324/9/4
f 324/4/4 315/4/4 325/4/4
f 316/1/4 317/1/4 326/1/4
f 317/9/4 318/9/4 327/9/4
f 326/1/4 317/1/4 327/1/4
f 318/6/4 319/6/4 328/6/4
f 327/9/4 318/9/4 328/9/4
f 328/6/4 319/6/4 329/6/4
f 329/9/4 330/9/4 333/9/4
f 333/9/4 330/9/4 334/9/4
f 331/9/4 332/9/4 335/9/4
f 335/9/4 332/9/4 336/9/4
f 335/6/4 336/6/4 337/6/4
f 337/6/4 336/6/4 338/6/4
f 337/9/4 338/9/4 341/9/4
f 341/9/4 338/9/4 342/9/4
f 339/3/4 340/3/4 343/3/4
f 343/3/4 340/3/4 344/3/4
f 341/10/4 342/10/4 345/10/4
f 345/10/4 342/10/4 346/10/4
f 347/9/4 348/9/4 349/9/4
f 349/9/4 348/9/4 350/9/4
f 350/9/4 348/9/4 351/9/4
f 349/8/4 350/8/4 352/8/4
f 352/8/4 350/8/4 353/8/4
f 352/9/4 353/9/4 355/9/4
f 353/9/4 354/9/4 355/9/4
f 355/9/4 354/9/4 356/9/4
f 357/9/4 358/9/4 359/9/4
f 359/9/4 358/9/4 360/9/4
f 365/9/5 362/9/5 361/9/5
f 366/9/5 362/9/5 365/9/5
f 367/9/5 364/9/5 363/9/5
f 368/9/5 364/9/5 367/9/5
f 369/1/5 366/1/5 365/1/5
f 370/1/5 366/1/5 369/1/5
f 371/1/5 368/1/5 367/1/5
f 372/1/5 368/1/5 371/1/5
f 376/9/5 374/9/5 373/9/5
f 377/9/5 374/9/5 376/9/5
f 378/9/5 374/9/5 377/9/5
f 379/9/5 374/9/5 378/9/5
f 381/9/5 376/9/5 375/9/5
f 382/9/5 376/9/5 381/9/5
f 383/9/5 378/9/5 377/9/5
f 384/9/5 378/9/5 383/9/5
f 385/9/5 380/9/5 379/9/5
f 386/9/5 380/9/5 385/9/5
f 387/9/5 383/9/5 382/9/5
f 388/8/5 384/8/5 383/8/5
f 388/9/5 383/9/5 387/9/5
f 389/9/5 385/9/5 384/9/5
f 389/8/5 384/8/5 388/8/5
f 390/9/5 385/9/5 389/9/5
f 401/10/5 392/10/5 391/10/5
f 402/9/5 393/9/5 392/9/5
f 402/10/5 392/10/5 401/10/5
f 403/6/5 394/6/5 393/6/5
f 403/9/5 393/9/5 402/9/5
f 404/9/5 395/9/5 394/9/5
f 404/6/5 394/6/5 403/6/5
f 405/9/5 395/9/5 404/9/5
f 406/9/5 397/9/5 396/9/5
f 407/6/5 398/6/5 397/6/5
f 407/9/5 397/9/5 406/9/5
f 408/9/5 399/9/5 398/9/5
f 408/6/5 398/6/5 407/6/5
f 409/10/5 400/10/5 399/10/5
f 409/9/5 399/9/5 408/9/5
f 410/10/5 400/10/5 409/10/5
f 415/7/5 412/7/5 411/7/5
f 416/9/5 413/9/5 412/9/5
f 416/7/5 412/7/5 415/7/5
f 417/7/5 414/7/5 413/7/5
f 417/9/5 413/9/5 416/9/5
f 418/7/5 414/7/5 417/7/5
f 419/9/5 416/9/5 415/9/5
f 419/9/5 417/9/5 416/9/5
f 419/9/5 418/9/5 417/9/5
f 420/9/5 418/9/5 419/9/5
f 421/9/5 419/9/5 415/9/5
f 422/9/5 418/9/5 420/9/5
f 423/9/5 421/9/5 415/9/5
f 423/9/5 422/9/5 421/9/5
f 424/9/5 418/9/5 422/9/5
f 424/9/5 422/9/5 423/9/5
f 430/3/5 426/3/5 425/3/5
f 431/7/5 430/7/5 429/7/5
f 432/3/5 426/3/5 430/3/5
f 432/7/5 430/7/5 431/7/5
f 433/3/5 426/3/5 432/3/5
f 434/3/5 428/3/5 427/3/5
f 435/3/5 428/3/5 434/3/5
f 439/7/5 437/7/5 436/7/5
f 440/7/5 437/7/5 439/7/5
f 441/7/5 439/7/5 438/7/5
f 442/7/5 439/7/5 441/7/5
f 443/9/6 444/9/6 447/9/6
f 447/9/6 444/9/6 448/9/6
f 445/9/6 446/9/6 449/9/6
f 449/9/6 446/9/6 450/9/6
f 451/9/6 452/9/6 455/9/6
f 455/9/6 452/9/6 456/9/6
f 453/9/6 454/9/6 457/9/6
f 457/9/6 454/9/6 458/9/6
f 459/9/6 460/9/6 461/9/6
f 461/9/6 460/9/6 462/9/6
f 463/8/6 464/8/6 465/8/6
f 465/8/6 464/8/6 466/8/6
f 467/9/6 468/9/6 475/9/6
f 475/9/6 468/9/6 476/9/6
f 469/9/6 470/9/6 477/9/6
f 477/9/6 470/9/6 478/9/6
f 471/10/6 472/10/6 483/10/6
f 472/9/6 473/9/6 484/9/6
f 483/10/6 472/10/6 484/10/6
f 473/6/6 474/6/6 485/6/6
f 484/9/6 473/9/6 485/9/6
f 475/9/6 476/9/6 486/9/6
f 485/6/6 474/6/6 486/6/6
f 474/9/6 475/9/6 486/9/6
f 486/9/6 476/9/6 487/9/6
f 487/9/6 476/9/6 488/9/6
f 477/9/6 478/9/6 489/9/6
f 478/9/6 479/9/6 489/9/6
f 489/9/6 479/9/6 490/9/6
f 479/6/6 480/6/6 491/6/6
f 490/9/6 479/9/6 491/9/6
f 480/9/6 481/9/6 492/9/6
f 491/6/6 480/6/6 492/6/6
f 481/10/6 482/10/6 493/10/6
f 492/9/6 481/9/6 493/9/6
f 493/10/6 482/10/6 494/10/6
f 487/9/6 488/9/6 495/9/6
f 495/9/6 488/9/6 496/9/6
f 489/9/6 490/9/6 497/9/6
f 497/9/6 490/9/6 498/9/6
f 499/7/6 500/7/6 501/7/6
f 501/7/6 500/7/6 502/7/6
f 503/7/6 504/7/6 507/7/6
f 507/7/6 504/7/6 508/7/6
f 508/3/6 509/3/6 510/3/6
f 510/3/6 509/3/6 511/3/6
f 505/3/6 506/3/6 512/3/6
f 512/3/6 506/3/6 513/3/6
f 514/7/6 515/7/6 516/7/6
f 516/7/6 515/7/6 517/7/6
f 518/9/6 519/9/6 520/9/6
f 520/9/6 519/9/6 521/9/6
f 521/9/6 519/9/6 522/9/6
f 520/9/6 521/9/6 523/9/6
f 522/9/6 519/9/6 524/9/6
f 520/9/6 523/9/6 525/9/6
f 523/9/6 524/9/6 525/9/6
f 524/9/6 519/9/6 526/9/6
f 525/9/6 524/9/6 526/9/6
f 527/7/6 528/7/6 529/7/6
f 529/7/6 528/7/6 530/7/6
f 531/4/6 532/4/6 533/4/6
f 533/4/6 532/4/6 534/4/6
