# MagicaVoxel @ Ephtracy

# group
o 

# material
mtllib robo_kari5.mtl
usemtl palette

# normals
vn -1 0 0
vn 1 0 0
vn 0 0 1
vn 0 0 -1
vn 0 -1 0
vn 0 1 0

# texcoords
vt 0.0214844 0.5
vt 0.0332031 0.5
vt 0.0917969 0.5
vt 0.841797 0.5
vt 0.845703 0.5
vt 0.853516 0.5
vt 0.962891 0.5
vt 0.970703 0.5
vt 0.974609 0.5
vt 0.978516 0.5
vt 0.982422 0.5
vt 0.994141 0.5

# verts
v 0.4 2.7 -1
v 0.4 2.7 -1.1
v 0.4 2.8 -1
v 0.4 2.8 -1.1
v 0.5 2.7 -0.9
v 0.5 2.7 -1
v 0.5 2.7 -1.1
v 0.5 2.7 -1.2
v 0.5 2.8 -0.9
v 0.5 2.8 -1
v 0.5 2.8 -1.1
v 0.5 2.8 -1.2
v 0.5 3 -1
v 0.5 3 -1.1
v 0.5 3.2 -0.9
v 0.5 3.2 -1
v 0.5 3.2 -1.1
v 0.5 3.3 -0.9
v 0.5 3.3 -1
v 0.6 3 -0.9
v 0.6 3 -1
v 0.6 3.2 -0.8
v 0.6 3.2 -0.9
v 0.6 3.2 -1
v 0.6 3.2 -1.1
v 0.6 3.3 -0.9
v 0.6 3.3 -1
v 0.6 3.3 -1.1
v 0.6 3.4 -0.9
v 0.6 3.4 -1
v 0.6 3.6 -0.8
v 0.6 3.6 -0.9
v 0.7 2.9 -0.8
v 0.7 2.9 -0.9
v 0.7 2.9 -1.3
v 0.7 3 -0.8
v 0.7 3 -0.9
v 0.7 3 -1.1
v 0.7 3.2 -0.8
v 0.7 3.2 -0.9
v 0.7 3.3 -1
v 0.7 3.3 -1.1
v 0.7 3.4 -0.9
v 0.7 3.4 -1
v 0.7 3.5 -0.9
v 0.7 3.5 -1.3
v 0.8 2.4 -1
v 0.8 2.4 -1.1
v 0.8 2.6 -1
v 0.8 2.6 -1.1
v 0.9 2 -0.9
v 0.9 2 -1
v 0.9 2 -1.1
v 0.9 2.1 -0.9
v 0.9 2.1 -1
v 0.9 2.1 -1.1
v 0.9 2.2 -1.2
v 0.9 2.2 -1.3
v 0.9 2.3 -1
v 0.9 2.3 -1.1
v 0.9 2.3 -1.2
v 0.9 2.3 -1.3
v 0.9 2.4 -0.9
v 0.9 2.4 -1
v 0.9 2.4 -1.1
v 0.9 2.4 -1.3
v 0.9 2.5 -1.1
v 0.9 2.5 -1.3
v 0.9 2.6 -0.9
v 0.9 2.6 -1
v 0.9 2.6 -1.1
v 0.9 2.6 -1.3
v 0.9 2.7 -0.9
v 0.9 2.7 -1
v 0.9 2.7 -1.1
v 0.9 2.8 -0.9
v 0.9 2.8 -1
v 0.9 2.8 -1.1
v 0.9 2.8 -1.3
v 1 2.3 -1.2
v 1 2.3 -1.3
v 1 2.4 -1.2
v 1 2.4 -1.3
v 1 2.8 -1
v 1 2.8 -1.1
v 1 2.9 -1
v 1 2.9 -1.1
v 1 3.5 -1
v 1 3.5 -1.1
v 1 3.7 -1
v 1 3.7 -1.1
v 1 3.8 -1
v 1 3.8 -1.1
v 1.1 2 -0.9
v 1.1 2 -1
v 1.1 2 -1.1
v 1.1 2.1 -0.9
v 1.1 2.1 -1
v 1.1 2.1 -1.1
v 1.1 2.3 -1
v 1.1 2.3 -1.1
v 1.1 2.4 -1
v 1.1 2.4 -1.1
v 1.1 2.7 -0.9
v 1.1 2.7 -1
v 1.1 2.7 -1.1
v 1.1 2.7 -1.2
v 1.1 2.7 -1.3
v 1.1 2.8 -0.9
v 1.1 2.8 -1
v 1.1 2.8 -1.1
v 1.1 2.8 -1.3
v 1.5 2.7 -0.9
v 1.5 2.7 -1
v 1.5 2.7 -1.1
v 1.5 2.7 -1.2
v 1.5 2.8 -0.9
v 1.5 2.8 -1
v 1.5 2.8 -1.1
v 1.5 2.8 -1.2
v 0.6 2.7 -0.9
v 0.6 2.7 -1
v 0.6 2.7 -1.1
v 0.6 2.7 -1.2
v 0.6 2.8 -0.9
v 0.6 2.8 -1
v 0.6 2.8 -1.1
v 0.6 2.8 -1.2
v 0.7 3.5 -0.8
v 0.7 3.5 -0.9
v 0.7 3.6 -0.8
v 0.7 3.6 -0.9
v 1 2 -0.9
v 1 2 -1
v 1 2 -1.1
v 1 2.1 -0.9
v 1 2.1 -1
v 1 2.1 -1.1
v 1 2.3 -1
v 1 2.3 -1.1
v 1 2.4 -1
v 1 2.4 -1.1
v 1 2.7 -0.9
v 1 2.7 -1
v 1 2.7 -1.1
v 1 2.7 -1.2
v 1 2.7 -1.3
v 1 2.8 -0.9
v 1 2.8 -1
v 1 2.8 -1.1
v 1 2.8 -1.3
v 1.1 2.3 -1.2
v 1.1 2.3 -1.3
v 1.1 2.4 -1.2
v 1.1 2.4 -1.3
v 1.1 2.8 -1
v 1.1 2.8 -1.1
v 1.1 2.9 -1
v 1.1 2.9 -1.1
v 1.1 3.5 -1
v 1.1 3.5 -1.1
v 1.1 3.7 -1
v 1.1 3.7 -1.1
v 1.1 3.8 -1
v 1.1 3.8 -1.1
v 1.2 2 -0.9
v 1.2 2 -1
v 1.2 2 -1.1
v 1.2 2.1 -0.9
v 1.2 2.1 -1
v 1.2 2.1 -1.1
v 1.2 2.2 -1.2
v 1.2 2.2 -1.3
v 1.2 2.3 -1
v 1.2 2.3 -1.1
v 1.2 2.3 -1.2
v 1.2 2.3 -1.3
v 1.2 2.4 -0.9
v 1.2 2.4 -1
v 1.2 2.4 -1.1
v 1.2 2.4 -1.3
v 1.2 2.5 -0.9
v 1.2 2.5 -1
v 1.2 2.5 -1.1
v 1.2 2.5 -1.3
v 1.2 2.6 -1
v 1.2 2.6 -1.1
v 1.2 2.6 -1.3
v 1.2 2.7 -1
v 1.2 2.7 -1.1
v 1.2 2.8 -0.9
v 1.2 2.8 -1
v 1.2 2.8 -1.1
v 1.2 2.8 -1.3
v 1.3 2.4 -1
v 1.3 2.4 -1.1
v 1.3 2.6 -1
v 1.3 2.6 -1.1
v 1.4 2.9 -0.8
v 1.4 2.9 -0.9
v 1.4 2.9 -1.3
v 1.4 3 -0.8
v 1.4 3 -0.9
v 1.4 3 -1.1
v 1.4 3.3 -0.9
v 1.4 3.3 -1.1
v 1.4 3.5 -0.8
v 1.4 3.5 -1.3
v 1.5 3 -0.9
v 1.5 3 -1.1
v 1.5 3.3 -0.9
v 1.5 3.3 -1.1
v 1.6 2.7 -0.9
v 1.6 2.7 -1
v 1.6 2.7 -1.1
v 1.6 2.7 -1.2
v 1.6 2.8 -0.9
v 1.6 2.8 -1
v 1.6 2.8 -1.1
v 1.6 2.8 -1.2
v 1.7 2.7 -1
v 1.7 2.7 -1.1
v 1.7 2.8 -1
v 1.7 2.8 -1.1
v 0.6 3.2 -0.8
v 0.6 3.6 -0.8
v 0.7 2.9 -0.8
v 0.7 3 -0.8
v 0.7 3.2 -0.8
v 0.7 3.5 -0.8
v 0.7 3.6 -0.8
v 0.8 2.9 -0.8
v 0.8 3 -0.8
v 0.8 3.2 -0.8
v 0.9 3 -0.8
v 0.9 3.2 -0.8
v 1.2 3 -0.8
v 1.2 3.2 -0.8
v 1.3 2.9 -0.8
v 1.3 3 -0.8
v 1.3 3.2 -0.8
v 1.4 2.9 -0.8
v 1.4 3 -0.8
v 1.4 3.5 -0.8
v 0.5 2.7 -0.9
v 0.5 2.8 -0.9
v 0.5 3.2 -0.9
v 0.5 3.3 -0.9
v 0.6 2.7 -0.9
v 0.6 2.8 -0.9
v 0.6 3 -0.9
v 0.6 3.2 -0.9
v 0.6 3.3 -0.9
v 0.7 3 -0.9
v 0.7 3.2 -0.9
v 0.9 2 -0.9
v 0.9 2.1 -0.9
v 0.9 2.4 -0.9
v 0.9 2.6 -0.9
v 0.9 2.7 -0.9
v 0.9 2.8 -0.9
v 1 2 -0.9
v 1 2.1 -0.9
v 1 2.5 -0.9
v 1 2.6 -0.9
v 1 2.7 -0.9
v 1 2.8 -0.9
v 1.1 2 -0.9
v 1.1 2.1 -0.9
v 1.1 2.4 -0.9
v 1.1 2.5 -0.9
v 1.1 2.6 -0.9
v 1.1 2.7 -0.9
v 1.1 2.8 -0.9
v 1.2 2 -0.9
v 1.2 2.1 -0.9
v 1.2 2.4 -0.9
v 1.2 2.5 -0.9
v 1.2 2.8 -0.9
v 1.4 3 -0.9
v 1.4 3.3 -0.9
v 1.5 2.7 -0.9
v 1.5 2.8 -0.9
v 1.5 3 -0.9
v 1.5 3.3 -0.9
v 1.6 2.7 -0.9
v 1.6 2.8 -0.9
v 0.4 2.7 -1
v 0.4 2.8 -1
v 0.5 2.7 -1
v 0.5 2.8 -1
v 0.5 3 -1
v 0.5 3.2 -1
v 0.6 2.7 -1
v 0.6 2.8 -1
v 0.6 3 -1
v 0.6 3.2 -1
v 0.7 2.7 -1
v 0.7 2.8 -1
v 0.8 2.4 -1
v 0.8 2.6 -1
v 0.8 2.7 -1
v 0.8 2.8 -1
v 0.9 2.1 -1
v 0.9 2.3 -1
v 0.9 2.4 -1
v 0.9 2.6 -1
v 0.9 2.7 -1
v 0.9 2.8 -1
v 1 2.1 -1
v 1 2.3 -1
v 1 2.4 -1
v 1 2.7 -1
v 1 2.8 -1
v 1 2.9 -1
v 1 3.5 -1
v 1 3.7 -1
v 1 3.8 -1
v 1.1 2.1 -1
v 1.1 2.3 -1
v 1.1 2.4 -1
v 1.1 2.7 -1
v 1.1 2.8 -1
v 1.1 2.9 -1
v 1.1 3.5 -1
v 1.1 3.7 -1
v 1.1 3.8 -1
v 1.2 2.1 -1
v 1.2 2.3 -1
v 1.2 2.4 -1
v 1.2 2.5 -1
v 1.2 2.6 -1
v 1.2 2.7 -1
v 1.2 2.8 -1
v 1.3 2.4 -1
v 1.3 2.6 -1
v 1.3 2.7 -1
v 1.3 2.8 -1
v 1.4 2.7 -1
v 1.4 2.8 -1
v 1.5 2.7 -1
v 1.5 2.8 -1
v 1.6 2.7 -1
v 1.6 2.8 -1
v 1.7 2.7 -1
v 1.7 2.8 -1
v 0.9 2.2 -1.2
v 0.9 2.3 -1.2
v 1 2.3 -1.2
v 1 2.4 -1.2
v 1.1 2.3 -1.2
v 1.1 2.4 -1.2
v 1.2 2.2 -1.2
v 1.2 2.3 -1.2
v 0.6 3.4 -0.9
v 0.6 3.6 -0.9
v 0.7 3.4 -0.9
v 0.7 3.5 -0.9
v 0.7 3.6 -0.9
v 0.5 3.2 -1
v 0.5 3.3 -1
v 0.6 3.2 -1
v 0.6 3.3 -1
v 0.6 3.4 -1
v 0.7 3.3 -1
v 0.7 3.4 -1
v 0.4 2.7 -1.1
v 0.4 2.8 -1.1
v 0.5 2.7 -1.1
v 0.5 2.8 -1.1
v 0.5 3 -1.1
v 0.5 3.2 -1.1
v 0.6 2.7 -1.1
v 0.6 2.8 -1.1
v 0.6 3 -1.1
v 0.6 3.2 -1.1
v 0.6 3.3 -1.1
v 0.7 2.7 -1.1
v 0.7 2.8 -1.1
v 0.7 3 -1.1
v 0.7 3.3 -1.1
v 0.8 2.4 -1.1
v 0.8 2.6 -1.1
v 0.8 2.7 -1.1
v 0.8 2.8 -1.1
v 0.9 2 -1.1
v 0.9 2.1 -1.1
v 0.9 2.3 -1.1
v 0.9 2.4 -1.1
v 0.9 2.5 -1.1
v 0.9 2.6 -1.1
v 0.9 2.7 -1.1
v 0.9 2.8 -1.1
v 1 2 -1.1
v 1 2.1 -1.1
v 1 2.3 -1.1
v 1 2.4 -1.1
v 1 2.7 -1.1
v 1 2.8 -1.1
v 1 2.9 -1.1
v 1 3.5 -1.1
v 1 3.7 -1.1
v 1 3.8 -1.1
v 1.1 2 -1.1
v 1.1 2.1 -1.1
v 1.1 2.3 -1.1
v 1.1 2.4 -1.1
v 1.1 2.7 -1.1
v 1.1 2.8 -1.1
v 1.1 2.9 -1.1
v 1.1 3.5 -1.1
v 1.1 3.7 -1.1
v 1.1 3.8 -1.1
v 1.2 2 -1.1
v 1.2 2.1 -1.1
v 1.2 2.3 -1.1
v 1.2 2.4 -1.1
v 1.2 2.5 -1.1
v 1.2 2.6 -1.1
v 1.2 2.7 -1.1
v 1.2 2.8 -1.1
v 1.3 2.4 -1.1
v 1.3 2.6 -1.1
v 1.3 2.7 -1.1
v 1.3 2.8 -1.1
v 1.4 2.7 -1.1
v 1.4 2.8 -1.1
v 1.4 3 -1.1
v 1.4 3.3 -1.1
v 1.5 2.7 -1.1
v 1.5 2.8 -1.1
v 1.5 3 -1.1
v 1.5 3.3 -1.1
v 1.6 2.7 -1.1
v 1.6 2.8 -1.1
v 1.7 2.7 -1.1
v 1.7 2.8 -1.1
v 0.5 2.7 -1.2
v 0.5 2.8 -1.2
v 0.6 2.7 -1.2
v 0.6 2.8 -1.2
v 1.5 2.7 -1.2
v 1.5 2.8 -1.2
v 1.6 2.7 -1.2
v 1.6 2.8 -1.2
v 0.7 2.9 -1.3
v 0.7 3.5 -1.3
v 0.9 2.2 -1.3
v 0.9 2.3 -1.3
v 0.9 2.4 -1.3
v 0.9 2.5 -1.3
v 0.9 2.6 -1.3
v 0.9 2.8 -1.3
v 1 2.3 -1.3
v 1 2.4 -1.3
v 1 2.5 -1.3
v 1 2.6 -1.3
v 1 2.7 -1.3
v 1 2.8 -1.3
v 1.1 2.3 -1.3
v 1.1 2.4 -1.3
v 1.1 2.5 -1.3
v 1.1 2.6 -1.3
v 1.1 2.7 -1.3
v 1.1 2.8 -1.3
v 1.2 2.2 -1.3
v 1.2 2.3 -1.3
v 1.2 2.4 -1.3
v 1.2 2.5 -1.3
v 1.2 2.6 -1.3
v 1.2 2.8 -1.3
v 1.4 2.9 -1.3
v 1.4 3.5 -1.3
v 0.9 2 -0.9
v 1 2 -0.9
v 1.1 2 -0.9
v 1.2 2 -0.9
v 0.9 2 -1
v 1 2 -1
v 1.1 2 -1
v 1.2 2 -1
v 0.9 2 -1.1
v 1 2 -1.1
v 1.1 2 -1.1
v 1.2 2 -1.1
v 0.9 2.2 -1.2
v 1.2 2.2 -1.2
v 0.9 2.2 -1.3
v 1.2 2.2 -1.3
v 0.9 2.4 -0.9
v 1.1 2.4 -0.9
v 1.2 2.4 -0.9
v 0.8 2.4 -1
v 0.9 2.4 -1
v 1 2.4 -1
v 1.1 2.4 -1
v 1.2 2.4 -1
v 1.3 2.4 -1
v 0.8 2.4 -1.1
v 0.9 2.4 -1.1
v 1 2.4 -1.1
v 1.1 2.4 -1.1
v 1.2 2.4 -1.1
v 1.3 2.4 -1.1
v 1 2.4 -1.2
v 1.1 2.4 -1.2
v 0.9 2.4 -1.3
v 1 2.4 -1.3
v 1.1 2.4 -1.3
v 1.2 2.4 -1.3
v 0.5 2.7 -0.9
v 0.6 2.7 -0.9
v 1.5 2.7 -0.9
v 1.6 2.7 -0.9
v 0.4 2.7 -1
v 0.5 2.7 -1
v 0.6 2.7 -1
v 0.7 2.7 -1
v 0.8 2.7 -1
v 0.9 2.7 -1
v 1.2 2.7 -1
v 1.3 2.7 -1
v 1.4 2.7 -1
v 1.5 2.7 -1
v 1.6 2.7 -1
v 1.7 2.7 -1
v 0.4 2.7 -1.1
v 0.5 2.7 -1.1
v 0.6 2.7 -1.1
v 0.7 2.7 -1.1
v 0.8 2.7 -1.1
v 0.9 2.7 -1.1
v 1.2 2.7 -1.1
v 1.3 2.7 -1.1
v 1.4 2.7 -1.1
v 1.5 2.7 -1.1
v 1.6 2.7 -1.1
v 1.7 2.7 -1.1
v 0.5 2.7 -1.2
v 0.6 2.7 -1.2
v 1.5 2.7 -1.2
v 1.6 2.7 -1.2
v 0.7 2.9 -0.8
v 0.8 2.9 -0.8
v 1.3 2.9 -0.8
v 1.4 2.9 -0.8
v 0.7 2.9 -0.9
v 0.8 2.9 -0.9
v 1.3 2.9 -0.9
v 1.4 2.9 -0.9
v 1 2.9 -1
v 1.1 2.9 -1
v 1 2.9 -1.1
v 1.1 2.9 -1.1
v 0.7 2.9 -1.3
v 1.4 2.9 -1.3
v 0.6 3 -0.9
v 0.7 3 -0.9
v 1.4 3 -0.9
v 1.5 3 -0.9
v 0.5 3 -1
v 0.6 3 -1
v 0.5 3 -1.1
v 0.6 3 -1.1
v 0.7 3 -1.1
v 1.4 3 -1.1
v 1.5 3 -1.1
v 0.6 3.2 -0.8
v 0.7 3.2 -0.8
v 0.5 3.2 -0.9
v 0.6 3.2 -0.9
v 0.7 3.2 -0.9
v 0.5 3.2 -1
v 0.6 3.2 -1
v 0.9 2.1 -0.9
v 1 2.1 -0.9
v 1.1 2.1 -0.9
v 1.2 2.1 -0.9
v 0.9 2.1 -1
v 1 2.1 -1
v 1.1 2.1 -1
v 1.2 2.1 -1
v 0.9 2.3 -1.2
v 1 2.3 -1.2
v 1.1 2.3 -1.2
v 1.2 2.3 -1.2
v 0.9 2.3 -1.3
v 1 2.3 -1.3
v 1.1 2.3 -1.3
v 1.2 2.3 -1.3
v 0.8 2.6 -1
v 0.9 2.6 -1
v 1.2 2.6 -1
v 1.3 2.6 -1
v 0.8 2.6 -1.1
v 0.9 2.6 -1.1
v 1.2 2.6 -1.1
v 1.3 2.6 -1.1
v 1 2.7 -0.9
v 1.1 2.7 -0.9
v 1 2.7 -1
v 1.1 2.7 -1
v 1 2.7 -1.1
v 1.1 2.7 -1.1
v 1 2.7 -1.2
v 1.1 2.7 -1.2
v 1 2.7 -1.3
v 1.1 2.7 -1.3
v 0.5 2.8 -0.9
v 0.6 2.8 -0.9
v 0.9 2.8 -0.9
v 1 2.8 -0.9
v 1.1 2.8 -0.9
v 1.2 2.8 -0.9
v 1.5 2.8 -0.9
v 1.6 2.8 -0.9
v 0.4 2.8 -1
v 0.5 2.8 -1
v 0.6 2.8 -1
v 0.7 2.8 -1
v 0.8 2.8 -1
v 0.9 2.8 -1
v 1 2.8 -1
v 1.1 2.8 -1
v 1.2 2.8 -1
v 1.3 2.8 -1
v 1.4 2.8 -1
v 1.5 2.8 -1
v 1.6 2.8 -1
v 1.7 2.8 -1
v 0.4 2.8 -1.1
v 0.5 2.8 -1.1
v 0.6 2.8 -1.1
v 0.7 2.8 -1.1
v 0.8 2.8 -1.1
v 0.9 2.8 -1.1
v 1 2.8 -1.1
v 1.1 2.8 -1.1
v 1.2 2.8 -1.1
v 1.3 2.8 -1.1
v 1.4 2.8 -1.1
v 1.5 2.8 -1.1
v 1.6 2.8 -1.1
v 1.7 2.8 -1.1
v 0.5 2.8 -1.2
v 0.6 2.8 -1.2
v 1.5 2.8 -1.2
v 1.6 2.8 -1.2
v 0.9 2.8 -1.3
v 1 2.8 -1.3
v 1.1 2.8 -1.3
v 1.2 2.8 -1.3
v 0.5 3.2 -1
v 0.6 3.2 -1
v 0.5 3.2 -1.1
v 0.6 3.2 -1.1
v 0.5 3.3 -0.9
v 0.6 3.3 -0.9
v 1.4 3.3 -0.9
v 1.5 3.3 -0.9
v 0.5 3.3 -1
v 0.6 3.3 -1
v 0.7 3.3 -1
v 0.6 3.3 -1.1
v 0.7 3.3 -1.1
v 1.4 3.3 -1.1
v 1.5 3.3 -1.1
v 0.6 3.4 -0.9
v 0.7 3.4 -0.9
v 0.6 3.4 -1
v 0.7 3.4 -1
v 0.7 3.5 -0.8
v 1.4 3.5 -0.8
v 0.7 3.5 -0.9
v 1 3.5 -1
v 1.1 3.5 -1
v 1 3.5 -1.1
v 1.1 3.5 -1.1
v 0.7 3.5 -1.3
v 1.4 3.5 -1.3
v 0.6 3.6 -0.8
v 0.7 3.6 -0.8
v 0.6 3.6 -0.9
v 0.7 3.6 -0.9
v 1 3.8 -1
v 1.1 3.8 -1
v 1 3.8 -1.1
v 1.1 3.8 -1.1

# faces
f 3/4/1 2/4/1 1/4/1
f 4/4/1 2/4/1 3/4/1
f 9/4/1 6/4/1 5/4/1
f 10/4/1 6/4/1 9/4/1
f 11/4/1 8/4/1 7/4/1
f 12/4/1 8/4/1 11/4/1
f 16/9/1 14/9/1 13/9/1
f 17/9/1 14/9/1 16/9/1
f 18/9/1 16/9/1 15/9/1
f 19/9/1 16/9/1 18/9/1
f 23/5/1 21/5/1 20/5/1
f 24/5/1 21/5/1 23/5/1
f 26/9/1 23/9/1 22/9/1
f 27/5/1 25/5/1 24/5/1
f 28/5/1 25/5/1 27/5/1
f 29/9/1 26/9/1 22/9/1
f 29/9/1 27/9/1 26/9/1
f 30/9/1 27/9/1 29/9/1
f 31/9/1 29/9/1 22/9/1
f 32/9/1 29/9/1 31/9/1
f 36/9/1 34/9/1 33/9/1
f 37/11/1 35/11/1 34/11/1
f 37/9/1 34/9/1 36/9/1
f 38/11/1 35/11/1 37/11/1
f 39/11/1 37/11/1 36/11/1
f 40/11/1 37/11/1 39/11/1
f 42/11/1 35/11/1 38/11/1
f 44/11/1 42/11/1 41/11/1
f 45/11/1 44/11/1 43/11/1
f 46/11/1 35/11/1 42/11/1
f 46/11/1 44/11/1 45/11/1
f 46/11/1 42/11/1 44/11/1
f 49/11/1 48/11/1 47/11/1
f 50/11/1 48/11/1 49/11/1
f 54/11/1 52/11/1 51/11/1
f 55/1/1 53/1/1 52/1/1
f 55/11/1 52/11/1 54/11/1
f 56/1/1 53/1/1 55/1/1
f 59/11/1 56/11/1 55/11/1
f 60/11/1 56/11/1 59/11/1
f 61/10/1 58/10/1 57/10/1
f 62/10/1 58/10/1 61/10/1
f 64/10/1 60/10/1 59/10/1
f 65/10/1 60/10/1 64/10/1
f 67/10/1 66/10/1 65/10/1
f 68/10/1 66/10/1 67/10/1
f 69/11/1 64/11/1 63/11/1
f 70/11/1 64/11/1 69/11/1
f 71/4/1 68/4/1 67/4/1
f 72/4/1 68/4/1 71/4/1
f 73/4/1 70/4/1 69/4/1
f 74/11/1 71/11/1 70/11/1
f 74/4/1 70/4/1 73/4/1
f 75/10/1 72/10/1 71/10/1
f 75/11/1 71/11/1 74/11/1
f 76/11/1 74/11/1 73/11/1
f 77/11/1 74/11/1 76/11/1
f 78/10/1 72/10/1 75/10/1
f 79/10/1 72/10/1 78/10/1
f 82/10/1 81/10/1 80/10/1
f 83/10/1 81/10/1 82/10/1
f 86/8/1 85/8/1 84/8/1
f 87/8/1 85/8/1 86/8/1
f 90/11/1 89/11/1 88/11/1
f 91/11/1 89/11/1 90/11/1
f 92/4/1 91/4/1 90/4/1
f 93/4/1 91/4/1 92/4/1
f 97/11/1 95/11/1 94/11/1
f 98/1/1 96/1/1 95/1/1
f 98/11/1 95/11/1 97/11/1
f 99/1/1 96/1/1 98/1/1
f 100/11/1 99/11/1 98/11/1
f 101/11/1 99/11/1 100/11/1
f 102/10/1 101/10/1 100/10/1
f 103/10/1 101/10/1 102/10/1
f 109/11/1 105/11/1 104/11/1
f 110/11/1 105/11/1 109/11/1
f 111/10/1 108/10/1 107/10/1
f 111/10/1 107/10/1 106/10/1
f 112/10/1 108/10/1 111/10/1
f 117/4/1 114/4/1 113/4/1
f 118/4/1 114/4/1 117/4/1
f 119/4/1 116/4/1 115/4/1
f 120/4/1 116/4/1 119/4/1
f 121/4/2 122/4/2 125/4/2
f 125/4/2 122/4/2 126/4/2
f 123/4/2 124/4/2 127/4/2
f 127/4/2 124/4/2 128/4/2
f 129/9/2 130/9/2 131/9/2
f 131/9/2 130/9/2 132/9/2
f 133/11/2 134/11/2 136/11/2
f 134/1/2 135/1/2 137/1/2
f 136/11/2 134/11/2 137/11/2
f 137/1/2 135/1/2 138/1/2
f 137/11/2 138/11/2 139/11/2
f 139/11/2 138/11/2 140/11/2
f 139/10/2 140/10/2 141/10/2
f 141/10/2 140/10/2 142/10/2
f 143/11/2 144/11/2 148/11/2
f 148/11/2 144/11/2 149/11/2
f 146/10/2 147/10/2 150/10/2
f 145/10/2 146/10/2 150/10/2
f 150/10/2 147/10/2 151/10/2
f 152/10/2 153/10/2 154/10/2
f 154/10/2 153/10/2 155/10/2
f 156/8/2 157/8/2 158/8/2
f 158/8/2 157/8/2 159/8/2
f 160/11/2 161/11/2 162/11/2
f 162/11/2 161/11/2 163/11/2
f 162/4/2 163/4/2 164/4/2
f 164/4/2 163/4/2 165/4/2
f 166/11/2 167/11/2 169/11/2
f 167/1/2 168/1/2 170/1/2
f 169/11/2 167/11/2 170/11/2
f 170/1/2 168/1/2 171/1/2
f 170/11/2 171/11/2 174/11/2
f 174/11/2 171/11/2 175/11/2
f 172/10/2 173/10/2 176/10/2
f 176/10/2 173/10/2 177/10/2
f 174/10/2 175/10/2 179/10/2
f 179/10/2 175/10/2 180/10/2
f 178/4/2 179/4/2 182/4/2
f 182/4/2 179/4/2 183/4/2
f 180/10/2 181/10/2 184/10/2
f 184/10/2 181/10/2 185/10/2
f 182/11/2 183/11/2 186/11/2
f 184/4/2 185/4/2 187/4/2
f 187/4/2 185/4/2 188/4/2
f 182/11/2 186/11/2 189/11/2
f 186/11/2 187/11/2 189/11/2
f 187/10/2 188/10/2 190/10/2
f 189/11/2 187/11/2 190/11/2
f 182/11/2 189/11/2 191/11/2
f 191/11/2 189/11/2 192/11/2
f 190/10/2 188/10/2 193/10/2
f 193/10/2 188/10/2 194/10/2
f 195/11/2 196/11/2 197/11/2
f 197/11/2 196/11/2 198/11/2
f 199/9/2 200/9/2 202/9/2
f 200/11/2 201/11/2 203/11/2
f 202/9/2 200/9/2 203/9/2
f 203/11/2 201/11/2 204/11/2
f 202/11/2 203/11/2 205/11/2
f 204/11/2 201/11/2 206/11/2
f 202/11/2 205/11/2 207/11/2
f 205/11/2 206/11/2 207/11/2
f 206/11/2 201/11/2 208/11/2
f 207/11/2 206/11/2 208/11/2
f 209/5/2 210/5/2 211/5/2
f 211/5/2 210/5/2 212/5/2
f 213/4/2 214/4/2 217/4/2
f 217/4/2 214/4/2 218/4/2
f 215/4/2 216/4/2 219/4/2
f 219/4/2 216/4/2 220/4/2
f 221/4/2 222/4/2 223/4/2
f 223/4/2 222/4/2 224/4/2
f 229/9/3 226/9/3 225/9/3
f 230/9/3 226/9/3 229/9/3
f 231/9/3 226/9/3 230/9/3
f 232/9/3 228/9/3 227/9/3
f 233/11/3 229/11/3 228/11/3
f 233/9/3 228/9/3 232/9/3
f 233/11/3 230/11/3 229/11/3
f 234/11/3 230/11/3 233/11/3
f 235/11/3 233/11/3 232/11/3
f 235/4/3 234/4/3 233/4/3
f 236/11/3 230/11/3 234/11/3
f 236/4/3 234/4/3 235/4/3
f 237/11/3 235/11/3 232/11/3
f 237/11/3 236/11/3 235/11/3
f 238/11/3 230/11/3 236/11/3
f 238/11/3 236/11/3 237/11/3
f 239/11/3 237/11/3 232/11/3
f 240/4/3 238/4/3 237/4/3
f 240/11/3 237/11/3 239/11/3
f 241/11/3 230/11/3 238/11/3
f 241/4/3 238/4/3 240/4/3
f 242/9/3 240/9/3 239/9/3
f 243/11/3 241/11/3 240/11/3
f 243/9/3 240/9/3 242/9/3
f 244/11/3 230/11/3 241/11/3
f 244/11/3 241/11/3 243/11/3
f 249/4/3 246/4/3 245/4/3
f 250/4/3 246/4/3 249/4/3
f 252/9/3 248/9/3 247/9/3
f 253/9/3 248/9/3 252/9/3
f 254/5/3 252/5/3 251/5/3
f 255/5/3 252/5/3 254/5/3
f 262/11/3 257/11/3 256/11/3
f 263/11/3 257/11/3 262/11/3
f 264/11/3 259/11/3 258/11/3
f 265/4/3 260/4/3 259/4/3
f 265/11/3 259/11/3 264/11/3
f 266/11/3 261/11/3 260/11/3
f 266/4/3 260/4/3 265/4/3
f 267/11/3 261/11/3 266/11/3
f 270/11/3 264/11/3 258/11/3
f 271/4/3 265/4/3 264/4/3
f 271/11/3 264/11/3 270/11/3
f 272/11/3 266/11/3 265/11/3
f 272/4/3 265/4/3 271/4/3
f 273/11/3 266/11/3 272/11/3
f 275/11/3 269/11/3 268/11/3
f 276/11/3 269/11/3 275/11/3
f 277/4/3 271/4/3 270/4/3
f 278/11/3 274/11/3 273/11/3
f 278/4/3 271/4/3 277/4/3
f 278/11/3 272/11/3 271/11/3
f 278/11/3 273/11/3 272/11/3
f 279/11/3 274/11/3 278/11/3
f 284/5/3 281/5/3 280/5/3
f 285/5/3 281/5/3 284/5/3
f 286/4/3 283/4/3 282/4/3
f 287/4/3 283/4/3 286/4/3
f 290/4/3 289/4/3 288/4/3
f 291/4/3 289/4/3 290/4/3
f 296/9/3 293/9/3 292/9/3
f 297/9/3 293/9/3 296/9/3
f 298/11/3 295/11/3 294/11/3
f 299/11/3 295/11/3 298/11/3
f 302/10/3 299/10/3 298/10/3
f 303/10/3 299/10/3 302/10/3
f 306/11/3 301/11/3 300/11/3
f 307/11/3 301/11/3 306/11/3
f 308/11/3 303/11/3 302/11/3
f 309/11/3 303/11/3 308/11/3
f 310/11/3 305/11/3 304/11/3
f 311/10/3 306/10/3 305/10/3
f 311/11/3 305/11/3 310/11/3
f 312/10/3 306/10/3 311/10/3
f 322/11/3 314/11/3 313/11/3
f 323/8/3 315/8/3 314/8/3
f 323/11/3 314/11/3 322/11/3
f 324/8/3 315/8/3 323/8/3
f 325/11/3 317/11/3 316/11/3
f 326/4/3 318/4/3 317/4/3
f 326/11/3 317/11/3 325/11/3
f 327/4/3 318/4/3 326/4/3
f 328/11/3 320/11/3 319/11/3
f 329/10/3 321/10/3 320/10/3
f 329/11/3 320/11/3 328/11/3
f 330/10/3 321/10/3 329/10/3
f 335/11/3 332/11/3 331/11/3
f 335/11/3 331/11/3 330/11/3
f 336/11/3 332/11/3 335/11/3
f 337/11/3 334/11/3 333/11/3
f 338/11/3 334/11/3 337/11/3
f 339/10/3 338/10/3 337/10/3
f 340/10/3 338/10/3 339/10/3
f 341/11/3 340/11/3 339/11/3
f 342/11/3 340/11/3 341/11/3
f 345/4/3 344/4/3 343/4/3
f 346/4/3 344/4/3 345/4/3
f 349/10/3 348/10/3 347/10/3
f 351/10/3 349/10/3 347/10/3
f 351/10/3 350/10/3 349/10/3
f 352/10/3 350/10/3 351/10/3
f 353/10/3 351/10/3 347/10/3
f 354/10/3 351/10/3 353/10/3
f 355/9/4 356/9/4 357/9/4
f 357/9/4 356/9/4 358/9/4
f 358/9/4 356/9/4 359/9/4
f 360/9/4 361/9/4 362/9/4
f 362/9/4 361/9/4 363/9/4
f 363/9/4 364/9/4 365/9/4
f 365/9/4 364/9/4 366/9/4
f 367/4/4 368/4/4 369/4/4
f 369/4/4 368/4/4 370/4/4
f 371/9/4 372/9/4 375/9/4
f 375/9/4 372/9/4 376/9/4
f 373/11/4 374/11/4 378/11/4
f 378/11/4 374/11/4 379/11/4
f 376/5/4 377/5/4 380/5/4
f 375/5/4 376/5/4 380/5/4
f 380/5/4 377/5/4 381/5/4
f 378/10/4 379/10/4 384/10/4
f 384/10/4 379/10/4 385/10/4
f 382/11/4 383/11/4 389/11/4
f 389/11/4 383/11/4 390/11/4
f 390/11/4 383/11/4 391/11/4
f 384/11/4 385/11/4 392/11/4
f 392/11/4 385/11/4 393/11/4
f 386/1/4 387/1/4 394/1/4
f 387/11/4 388/11/4 395/11/4
f 394/1/4 387/1/4 395/1/4
f 388/10/4 389/10/4 396/10/4
f 395/11/4 388/11/4 396/11/4
f 396/10/4 389/10/4 397/10/4
f 398/11/4 399/11/4 408/11/4
f 399/8/4 400/8/4 409/8/4
f 408/11/4 399/11/4 409/11/4
f 409/8/4 400/8/4 410/8/4
f 401/11/4 402/11/4 411/11/4
f 402/4/4 403/4/4 412/4/4
f 411/11/4 402/11/4 412/11/4
f 412/4/4 403/4/4 413/4/4
f 404/1/4 405/1/4 414/1/4
f 405/11/4 406/11/4 415/11/4
f 414/1/4 405/1/4 415/1/4
f 406/10/4 407/10/4 416/10/4
f 415/11/4 406/11/4 416/11/4
f 416/10/4 407/10/4 417/10/4
f 418/11/4 419/11/4 422/11/4
f 417/11/4 418/11/4 422/11/4
f 422/11/4 419/11/4 423/11/4
f 420/11/4 421/11/4 424/11/4
f 424/11/4 421/11/4 425/11/4
f 424/10/4 425/10/4 426/10/4
f 426/10/4 425/10/4 427/10/4
f 426/11/4 427/11/4 430/11/4
f 430/11/4 427/11/4 431/11/4
f 428/5/4 429/5/4 432/5/4
f 432/5/4 429/5/4 433/5/4
f 434/4/4 435/4/4 436/4/4
f 436/4/4 435/4/4 437/4/4
f 438/4/4 439/4/4 440/4/4
f 440/4/4 439/4/4 441/4/4
f 442/4/4 443/4/4 444/4/4
f 444/4/4 443/4/4 445/4/4
f 448/10/4 449/10/4 454/10/4
f 450/10/4 451/10/4 455/10/4
f 451/4/4 452/4/4 456/4/4
f 455/10/4 451/10/4 456/10/4
f 452/10/4 453/10/4 457/10/4
f 456/4/4 452/4/4 457/4/4
f 457/10/4 453/10/4 458/10/4
f 458/10/4 453/10/4 459/10/4
f 455/10/4 456/10/4 460/10/4
f 448/10/4 454/10/4 460/10/4
f 454/10/4 455/10/4 460/10/4
f 456/10/4 457/10/4 460/10/4
f 460/10/4 457/10/4 461/10/4
f 461/10/4 457/10/4 462/10/4
f 457/4/4 458/4/4 463/4/4
f 462/10/4 457/10/4 463/10/4
f 463/4/4 458/4/4 464/4/4
f 448/10/4 460/10/4 466/10/4
f 466/10/4 460/10/4 467/10/4
f 461/10/4 462/10/4 468/10/4
f 462/4/4 463/4/4 469/4/4
f 468/10/4 462/10/4 469/10/4
f 464/10/4 465/10/4 470/10/4
f 469/4/4 463/4/4 470/4/4
f 463/10/4 464/10/4 470/10/4
f 470/10/4 465/10/4 471/10/4
f 446/11/4 447/11/4 472/11/4
f 472/11/4 447/11/4 473/11/4
f 478/11/5 475/11/5 474/11/5
f 479/11/5 475/11/5 478/11/5
f 480/11/5 477/11/5 476/11/5
f 481/11/5 477/11/5 480/11/5
f 482/1/5 479/1/5 478/1/5
f 483/1/5 479/1/5 482/1/5
f 484/1/5 481/1/5 480/1/5
f 485/1/5 481/1/5 484/1/5
f 488/10/5 487/10/5 486/10/5
f 489/10/5 487/10/5 488/10/5
f 494/11/5 491/11/5 490/11/5
f 495/11/5 491/11/5 494/11/5
f 496/4/5 492/4/5 491/4/5
f 496/11/5 491/11/5 495/11/5
f 497/4/5 492/4/5 496/4/5
f 499/11/5 494/11/5 493/11/5
f 500/11/5 494/11/5 499/11/5
f 501/11/5 496/11/5 495/11/5
f 502/11/5 496/11/5 501/11/5
f 503/11/5 498/11/5 497/11/5
f 504/11/5 498/11/5 503/11/5
f 505/10/5 502/10/5 501/10/5
f 505/10/5 503/10/5 502/10/5
f 505/10/5 501/10/5 500/10/5
f 506/10/5 503/10/5 505/10/5
f 507/10/5 505/10/5 500/10/5
f 508/10/5 505/10/5 507/10/5
f 509/10/5 503/10/5 506/10/5
f 510/10/5 503/10/5 509/10/5
f 516/4/5 512/4/5 511/4/5
f 517/4/5 512/4/5 516/4/5
f 524/4/5 514/4/5 513/4/5
f 525/4/5 514/4/5 524/4/5
f 527/4/5 516/4/5 515/4/5
f 528/12/5 517/12/5 516/12/5
f 528/4/5 516/4/5 527/4/5
f 529/11/5 518/11/5 517/11/5
f 529/12/5 517/12/5 528/12/5
f 530/10/5 519/10/5 518/10/5
f 530/11/5 518/11/5 529/11/5
f 531/11/5 520/11/5 519/11/5
f 531/10/5 519/10/5 530/10/5
f 532/11/5 520/11/5 531/11/5
f 533/11/5 522/11/5 521/11/5
f 534/10/5 523/10/5 522/10/5
f 534/11/5 522/11/5 533/11/5
f 535/11/5 524/11/5 523/11/5
f 535/10/5 523/10/5 534/10/5
f 536/12/5 525/12/5 524/12/5
f 536/11/5 524/11/5 535/11/5
f 537/4/5 526/4/5 525/4/5
f 537/12/5 525/12/5 536/12/5
f 538/4/5 526/4/5 537/4/5
f 539/4/5 529/4/5 528/4/5
f 540/4/5 529/4/5 539/4/5
f 541/4/5 537/4/5 536/4/5
f 542/4/5 537/4/5 541/4/5
f 547/9/5 544/9/5 543/9/5
f 548/11/5 545/11/5 544/11/5
f 548/9/5 544/9/5 547/9/5
f 549/9/5 546/9/5 545/9/5
f 549/11/5 545/11/5 548/11/5
f 550/9/5 546/9/5 549/9/5
f 551/11/5 548/11/5 547/11/5
f 551/11/5 549/11/5 548/11/5
f 551/11/5 550/11/5 549/11/5
f 552/11/5 550/11/5 551/11/5
f 553/11/5 551/11/5 547/11/5
f 554/11/5 550/11/5 552/11/5
f 555/11/5 553/11/5 547/11/5
f 555/11/5 554/11/5 553/11/5
f 556/11/5 550/11/5 554/11/5
f 556/11/5 554/11/5 555/11/5
f 562/5/5 558/5/5 557/5/5
f 563/9/5 562/9/5 561/9/5
f 564/5/5 558/5/5 562/5/5
f 564/9/5 562/9/5 563/9/5
f 565/5/5 558/5/5 564/5/5
f 566/5/5 560/5/5 559/5/5
f 567/5/5 560/5/5 566/5/5
f 571/9/5 569/9/5 568/9/5
f 572/9/5 569/9/5 571/9/5
f 573/9/5 571/9/5 570/9/5
f 574/9/5 571/9/5 573/9/5
f 575/11/6 576/11/6 579/11/6
f 579/11/6 576/11/6 580/11/6
f 577/11/6 578/11/6 581/11/6
f 581/11/6 578/11/6 582/11/6
f 583/10/6 584/10/6 587/10/6
f 587/10/6 584/10/6 588/10/6
f 585/10/6 586/10/6 589/10/6
f 589/10/6 586/10/6 590/10/6
f 591/11/6 592/11/6 595/11/6
f 595/11/6 592/11/6 596/11/6
f 593/11/6 594/11/6 597/11/6
f 597/11/6 594/11/6 598/11/6
f 599/11/6 600/11/6 601/11/6
f 601/11/6 600/11/6 602/11/6
f 603/6/6 604/6/6 605/6/6
f 605/6/6 604/6/6 606/6/6
f 605/4/6 606/4/6 607/4/6
f 607/4/6 606/4/6 608/4/6
f 609/4/6 610/4/6 618/4/6
f 618/4/6 610/4/6 619/4/6
f 611/11/6 612/11/6 622/11/6
f 622/11/6 612/11/6 623/11/6
f 613/11/6 614/11/6 624/11/6
f 624/11/6 614/11/6 625/11/6
f 615/4/6 616/4/6 628/4/6
f 628/4/6 616/4/6 629/4/6
f 617/4/6 618/4/6 631/4/6
f 618/12/6 619/12/6 632/12/6
f 631/4/6 618/4/6 632/4/6
f 619/11/6 620/11/6 633/11/6
f 632/12/6 619/12/6 633/12/6
f 620/10/6 621/10/6 634/10/6
f 633/11/6 620/11/6 634/11/6
f 622/11/6 623/11/6 635/11/6
f 634/10/6 621/10/6 635/10/6
f 621/11/6 622/11/6 635/11/6
f 635/11/6 623/11/6 636/11/6
f 636/11/6 623/11/6 637/11/6
f 624/11/6 625/11/6 638/11/6
f 625/11/6 626/11/6 638/11/6
f 638/11/6 626/11/6 639/11/6
f 626/10/6 627/10/6 640/10/6
f 639/11/6 626/11/6 640/11/6
f 627/11/6 628/11/6 641/11/6
f 640/10/6 627/10/6 641/10/6
f 628/12/6 629/12/6 642/12/6
f 641/11/6 628/11/6 642/11/6
f 629/4/6 630/4/6 643/4/6
f 642/12/6 629/12/6 643/12/6
f 643/4/6 630/4/6 644/4/6
f 632/4/6 633/4/6 645/4/6
f 645/4/6 633/4/6 646/4/6
f 642/4/6 643/4/6 647/4/6
f 647/4/6 643/4/6 648/4/6
f 636/10/6 637/10/6 649/10/6
f 649/10/6 637/10/6 650/10/6
f 638/10/6 639/10/6 651/10/6
f 651/10/6 639/10/6 652/10/6
f 653/9/6 654/9/6 655/9/6
f 655/9/6 654/9/6 656/9/6
f 657/9/6 658/9/6 661/9/6
f 661/9/6 658/9/6 662/9/6
f 662/5/6 663/5/6 664/5/6
f 664/5/6 663/5/6 665/5/6
f 659/5/6 660/5/6 666/5/6
f 666/5/6 660/5/6 667/5/6
f 668/9/6 669/9/6 670/9/6
f 670/9/6 669/9/6 671/9/6
f 672/11/6 673/11/6 674/11/6
f 674/11/6 673/11/6 675/11/6
f 675/11/6 673/11/6 676/11/6
f 674/11/6 675/11/6 677/11/6
f 676/11/6 673/11/6 678/11/6
f 674/11/6 677/11/6 679/11/6
f 677/11/6 678/11/6 679/11/6
f 678/11/6 673/11/6 680/11/6
f 679/11/6 678/11/6 680/11/6
f 681/9/6 682/9/6 683/9/6
f 683/9/6 682/9/6 684/9/6
f 685/4/6 686/4/6 687/4/6
f 687/4/6 686/4/6 688/4/6
